<mxfile host="Electron" modified="2024-05-03T14:33:28.709Z" agent="Mozilla/5.0 (Windows NT 10.0; Win64; x64) AppleWebKit/537.36 (KHTML, like Gecko) draw.io/24.2.5 Chrome/120.0.6099.109 Electron/28.1.0 Safari/537.36" etag="KRSl1AVoVUvBI8B1W93h" version="24.2.5" type="device">
  <diagram name="第 1 页" id="dVdpCF9wNjlWeNjONU8Y">
    <mxGraphModel dx="1434" dy="836" grid="1" gridSize="10" guides="1" tooltips="1" connect="1" arrows="1" fold="1" page="1" pageScale="1" pageWidth="1169" pageHeight="1654" math="0" shadow="0">
      <root>
        <mxCell id="0" />
        <mxCell id="1" parent="0" />
        <mxCell id="Ce94UzNjPFxygGqjQuoT-1" value="" style="rounded=0;whiteSpace=wrap;html=1;fillColor=#dae8fc;strokeColor=#6c8ebf;" parent="1" vertex="1">
          <mxGeometry x="210" y="140" width="605" height="860" as="geometry" />
        </mxCell>
        <mxCell id="6_dM-zjxGHW6j9c7KO60-1" value="&lt;font style=&quot;font-size: 18px;&quot;&gt;&lt;b style=&quot;font-size: 18px;&quot;&gt;&lt;font face=&quot;宋体&quot;&gt;因果模型&lt;/font&gt;&lt;font face=&quot;Times New Roman&quot;&gt;(FalconForCausalLM)&lt;/font&gt;&lt;/b&gt;&lt;/font&gt;" style="text;html=1;align=center;verticalAlign=middle;whiteSpace=wrap;rounded=0;fontSize=18;" parent="1" vertex="1">
          <mxGeometry x="210" y="150" width="180" height="30" as="geometry" />
        </mxCell>
        <mxCell id="6_dM-zjxGHW6j9c7KO60-5" value="" style="rounded=0;whiteSpace=wrap;html=1;fillColor=#d5e8d4;strokeColor=#82b366;" parent="1" vertex="1">
          <mxGeometry x="230" y="190" width="565" height="740" as="geometry" />
        </mxCell>
        <mxCell id="6_dM-zjxGHW6j9c7KO60-4" value="&lt;div style=&quot;font-size: 18px;&quot;&gt;&lt;font style=&quot;font-size: 18px;&quot;&gt;&lt;span style=&quot;font-size: 18px;&quot;&gt;&lt;b style=&quot;font-size: 18px;&quot;&gt;&lt;font face=&quot;Times New Roman&quot;&gt;transformer&lt;/font&gt;&lt;font face=&quot;宋体&quot;&gt;层&lt;/font&gt;&lt;/b&gt;&lt;/span&gt;&lt;/font&gt;&lt;/div&gt;&lt;font style=&quot;font-size: 18px;&quot; face=&quot;Times New Roman&quot;&gt;&lt;span style=&quot;font-size: 18px;&quot;&gt;&lt;b style=&quot;font-size: 18px;&quot;&gt;(FalconModel)&lt;/b&gt;&lt;/span&gt;&lt;/font&gt;" style="text;html=1;align=center;verticalAlign=middle;whiteSpace=wrap;rounded=0;fontSize=18;" parent="1" vertex="1">
          <mxGeometry x="230" y="200" width="130" height="50" as="geometry" />
        </mxCell>
        <mxCell id="6_dM-zjxGHW6j9c7KO60-6" value="&lt;font face=&quot;宋体&quot;&gt;词嵌入层&lt;/font&gt;&lt;br&gt;&lt;div style=&quot;font-size: 16px;&quot;&gt;&lt;font style=&quot;font-size: 16px;&quot; face=&quot;Times New Roman&quot;&gt;(Embedding)&lt;/font&gt;&lt;/div&gt;" style="rounded=0;whiteSpace=wrap;html=1;align=center;verticalAlign=middle;fontFamily=Helvetica;fontSize=16;fillColor=#fad9d5;strokeColor=#ae4132;" parent="1" vertex="1">
          <mxGeometry x="440" y="200" width="180" height="50" as="geometry" />
        </mxCell>
        <mxCell id="0uun9HxLS7iqF53nhESP-2" style="edgeStyle=orthogonalEdgeStyle;rounded=0;orthogonalLoop=1;jettySize=auto;html=1;exitX=0;exitY=0.5;exitDx=0;exitDy=0;entryX=1;entryY=0.5;entryDx=0;entryDy=0;endArrow=classicThin;endFill=1;" parent="1" source="6_dM-zjxGHW6j9c7KO60-8" target="6_dM-zjxGHW6j9c7KO60-6" edge="1">
          <mxGeometry relative="1" as="geometry" />
        </mxCell>
        <mxCell id="6_dM-zjxGHW6j9c7KO60-8" value="&lt;font face=&quot;宋体&quot; style=&quot;font-size: 16px;&quot;&gt;输入文本编码表示&lt;/font&gt;&lt;div&gt;&lt;font style=&quot;font-size: 16px;&quot; face=&quot;Times New Roman&quot;&gt;(input_ids)&lt;/font&gt;&lt;/div&gt;" style="rounded=0;whiteSpace=wrap;html=1;align=center;verticalAlign=middle;fontFamily=Helvetica;fontSize=16;fillColor=#fad7ac;strokeColor=#b46504;" parent="1" vertex="1">
          <mxGeometry x="830" y="200" width="180" height="50" as="geometry" />
        </mxCell>
        <mxCell id="6_dM-zjxGHW6j9c7KO60-52" style="edgeStyle=orthogonalEdgeStyle;rounded=0;orthogonalLoop=1;jettySize=auto;html=1;exitX=0.5;exitY=1;exitDx=0;exitDy=0;entryX=0.5;entryY=0;entryDx=0;entryDy=0;fontFamily=Helvetica;fontSize=12;fontColor=default;endArrow=classicThin;endFill=1;" parent="1" source="6_dM-zjxGHW6j9c7KO60-31" target="6_dM-zjxGHW6j9c7KO60-32" edge="1">
          <mxGeometry relative="1" as="geometry" />
        </mxCell>
        <mxCell id="6_dM-zjxGHW6j9c7KO60-31" value="&lt;font face=&quot;宋体&quot; style=&quot;font-size: 16px;&quot;&gt;层归一化&lt;/font&gt;&lt;font style=&quot;font-size: 16px;&quot; face=&quot;Times New Roman&quot;&gt;:&lt;/font&gt;&lt;div style=&quot;font-size: 16px;&quot;&gt;&lt;font style=&quot;font-size: 16px;&quot; face=&quot;Times New Roman&quot;&gt;&lt;span style=&quot;font-size: 16px;&quot;&gt;LayerNorm&lt;/span&gt;&lt;/font&gt;&lt;/div&gt;" style="rounded=0;whiteSpace=wrap;html=1;align=center;verticalAlign=middle;fontFamily=Helvetica;fontSize=16;fillColor=#f5f5f5;strokeColor=#666666;fontColor=#333333;" parent="1" vertex="1">
          <mxGeometry x="430" y="870" width="180" height="50" as="geometry" />
        </mxCell>
        <mxCell id="0uun9HxLS7iqF53nhESP-1" style="edgeStyle=orthogonalEdgeStyle;rounded=0;orthogonalLoop=1;jettySize=auto;html=1;exitX=1;exitY=0.5;exitDx=0;exitDy=0;entryX=0;entryY=0.5;entryDx=0;entryDy=0;endArrow=classicThin;endFill=1;" parent="1" source="6_dM-zjxGHW6j9c7KO60-32" target="EwGdMeEbpD3Nh6OR7GkJ-13" edge="1">
          <mxGeometry relative="1" as="geometry" />
        </mxCell>
        <mxCell id="6_dM-zjxGHW6j9c7KO60-32" value="&lt;font face=&quot;宋体&quot;&gt;语言模型头&lt;/font&gt;&lt;br&gt;&lt;div style=&quot;font-size: 16px;&quot;&gt;&lt;font style=&quot;font-size: 16px;&quot; face=&quot;Times New Roman&quot;&gt;&lt;span style=&quot;font-size: 16px;&quot;&gt;(Linear)&lt;/span&gt;&lt;/font&gt;&lt;/div&gt;" style="rounded=0;whiteSpace=wrap;html=1;align=center;verticalAlign=middle;fontFamily=Helvetica;fontSize=16;fillColor=#b0e3e6;strokeColor=#0e8088;" parent="1" vertex="1">
          <mxGeometry x="430" y="940" width="180" height="50" as="geometry" />
        </mxCell>
        <mxCell id="0uun9HxLS7iqF53nhESP-17" style="edgeStyle=orthogonalEdgeStyle;rounded=0;orthogonalLoop=1;jettySize=auto;html=1;exitX=0.5;exitY=0;exitDx=0;exitDy=0;entryX=0.5;entryY=1;entryDx=0;entryDy=0;endArrow=classicThin;endFill=1;strokeWidth=1;dashed=1;" parent="1" source="EwGdMeEbpD3Nh6OR7GkJ-13" target="0uun9HxLS7iqF53nhESP-6" edge="1">
          <mxGeometry relative="1" as="geometry" />
        </mxCell>
        <mxCell id="EwGdMeEbpD3Nh6OR7GkJ-13" value="&lt;font face=&quot;宋体&quot;&gt;输出文本编码表示&lt;/font&gt;&lt;div&gt;&lt;font face=&quot;Times New Roman&quot;&gt;(output_ids)&lt;/font&gt;&lt;/div&gt;" style="rounded=0;whiteSpace=wrap;html=1;align=center;verticalAlign=middle;fontFamily=Helvetica;fontSize=16;fillColor=#fad7ac;strokeColor=#b46504;" parent="1" vertex="1">
          <mxGeometry x="830" y="940" width="180" height="50" as="geometry" />
        </mxCell>
        <mxCell id="0uun9HxLS7iqF53nhESP-5" value="&lt;font face=&quot;宋体&quot; style=&quot;font-size: 16px;&quot;&gt;数据类型：&lt;/font&gt;&lt;font face=&quot;Times New Roman&quot; style=&quot;font-size: 16px;&quot;&gt; bfloat16&lt;/font&gt;" style="text;html=1;align=center;verticalAlign=middle;whiteSpace=wrap;rounded=0;" parent="1" vertex="1">
          <mxGeometry x="830" y="460" width="90" height="30" as="geometry" />
        </mxCell>
        <mxCell id="0uun9HxLS7iqF53nhESP-16" style="edgeStyle=orthogonalEdgeStyle;rounded=0;orthogonalLoop=1;jettySize=auto;html=1;exitX=0.5;exitY=0;exitDx=0;exitDy=0;entryX=0.5;entryY=1;entryDx=0;entryDy=0;endArrow=classicThin;endFill=1;strokeWidth=1;" parent="1" source="0uun9HxLS7iqF53nhESP-6" target="6_dM-zjxGHW6j9c7KO60-8" edge="1">
          <mxGeometry relative="1" as="geometry" />
        </mxCell>
        <mxCell id="0uun9HxLS7iqF53nhESP-28" style="edgeStyle=orthogonalEdgeStyle;rounded=0;orthogonalLoop=1;jettySize=auto;html=1;exitX=1;exitY=0.75;exitDx=0;exitDy=0;entryX=0.5;entryY=0;entryDx=0;entryDy=0;endArrow=classicThin;endFill=1;dashed=1;" parent="1" source="0uun9HxLS7iqF53nhESP-6" target="0uun9HxLS7iqF53nhESP-21" edge="1">
          <mxGeometry relative="1" as="geometry" />
        </mxCell>
        <mxCell id="0uun9HxLS7iqF53nhESP-6" value="&lt;font face=&quot;宋体&quot; style=&quot;font-size: 16px;&quot;&gt;标记器(&lt;/font&gt;&lt;font face=&quot;Times New Roman&quot; style=&quot;font-size: 16px;&quot;&gt;falcon_tokenizer)&lt;/font&gt;" style="rounded=1;whiteSpace=wrap;html=1;fillColor=#f9f7ed;strokeColor=#36393d;" parent="1" vertex="1">
          <mxGeometry x="855" y="530" width="130" height="60" as="geometry" />
        </mxCell>
        <mxCell id="0uun9HxLS7iqF53nhESP-25" value="" style="group" parent="1" vertex="1" connectable="0">
          <mxGeometry x="929" y="340" width="240" height="86" as="geometry" />
        </mxCell>
        <mxCell id="0uun9HxLS7iqF53nhESP-11" value="" style="rounded=1;whiteSpace=wrap;html=1;fillColor=#cce5ff;strokeColor=#36393d;container=0;" parent="0uun9HxLS7iqF53nhESP-25" vertex="1">
          <mxGeometry x="7.346938775510239" y="26" width="232.6530612244898" height="60" as="geometry" />
        </mxCell>
        <mxCell id="0uun9HxLS7iqF53nhESP-10" value="" style="rounded=1;whiteSpace=wrap;html=1;fillColor=#cce5ff;strokeColor=#36393d;container=0;" parent="0uun9HxLS7iqF53nhESP-25" vertex="1">
          <mxGeometry x="3.6734693877550626" y="23" width="232.6530612244898" height="60" as="geometry" />
        </mxCell>
        <mxCell id="0uun9HxLS7iqF53nhESP-9" value="&lt;span style=&quot;font-size: 16px;&quot;&gt;&lt;font face=&quot;宋体&quot;&gt;自然语言指令&lt;/font&gt;&lt;/span&gt;&lt;span style=&quot;font-family: &amp;quot;Times New Roman&amp;quot;; font-size: 16px;&quot;&gt;: Give me a quote from a famous person.&lt;/span&gt;" style="rounded=1;whiteSpace=wrap;html=1;fillColor=#cce5ff;strokeColor=#36393d;container=0;" parent="0uun9HxLS7iqF53nhESP-25" vertex="1">
          <mxGeometry y="20" width="232.6530612244898" height="60" as="geometry" />
        </mxCell>
        <mxCell id="0uun9HxLS7iqF53nhESP-12" value="&lt;font face=&quot;宋体&quot; style=&quot;font-size: 16px;&quot;&gt;&lt;b style=&quot;&quot;&gt;任务&lt;/b&gt;&lt;/font&gt;" style="rounded=1;whiteSpace=wrap;html=1;fillColor=#1ba1e2;fontColor=#ffffff;strokeColor=#006EAF;container=0;" parent="0uun9HxLS7iqF53nhESP-25" vertex="1">
          <mxGeometry x="3.6734693877550626" width="69.79591836734694" height="20" as="geometry" />
        </mxCell>
        <mxCell id="0uun9HxLS7iqF53nhESP-26" style="edgeStyle=orthogonalEdgeStyle;rounded=0;orthogonalLoop=1;jettySize=auto;html=1;exitX=0.5;exitY=1;exitDx=0;exitDy=0;entryX=1;entryY=0.25;entryDx=0;entryDy=0;endArrow=classicThin;endFill=1;strokeWidth=1;" parent="1" source="0uun9HxLS7iqF53nhESP-11" target="0uun9HxLS7iqF53nhESP-6" edge="1">
          <mxGeometry relative="1" as="geometry" />
        </mxCell>
        <mxCell id="0uun9HxLS7iqF53nhESP-27" value="" style="group" parent="1" vertex="1" connectable="0">
          <mxGeometry x="929" y="720" width="240" height="86" as="geometry" />
        </mxCell>
        <mxCell id="0uun9HxLS7iqF53nhESP-19" value="" style="rounded=1;whiteSpace=wrap;html=1;fillColor=#cce5ff;strokeColor=#36393d;container=0;" parent="0uun9HxLS7iqF53nhESP-27" vertex="1">
          <mxGeometry x="7.346938775510239" y="26" width="232.6530612244898" height="60" as="geometry" />
        </mxCell>
        <mxCell id="0uun9HxLS7iqF53nhESP-20" value="" style="rounded=1;whiteSpace=wrap;html=1;fillColor=#cce5ff;strokeColor=#36393d;container=0;" parent="0uun9HxLS7iqF53nhESP-27" vertex="1">
          <mxGeometry x="3.6734693877550626" y="23" width="232.6530612244898" height="60" as="geometry" />
        </mxCell>
        <mxCell id="0uun9HxLS7iqF53nhESP-21" value="&lt;span style=&quot;font-size: 16px;&quot;&gt;&lt;font face=&quot;宋体&quot;&gt;自然语言输出&lt;/font&gt;&lt;/span&gt;&lt;span style=&quot;font-family: &amp;quot;Times New Roman&amp;quot;; font-size: 16px;&quot;&gt;: Honesty is the first chapter in the book of wisdom.&lt;/span&gt;" style="rounded=1;whiteSpace=wrap;html=1;fillColor=#cce5ff;strokeColor=#36393d;container=0;" parent="0uun9HxLS7iqF53nhESP-27" vertex="1">
          <mxGeometry y="20" width="232.6530612244898" height="60" as="geometry" />
        </mxCell>
        <mxCell id="0uun9HxLS7iqF53nhESP-22" value="&lt;font face=&quot;宋体&quot;&gt;&lt;span style=&quot;font-size: 16px;&quot;&gt;&lt;b&gt;反馈&lt;/b&gt;&lt;/span&gt;&lt;/font&gt;" style="rounded=1;whiteSpace=wrap;html=1;fillColor=#1ba1e2;fontColor=#ffffff;strokeColor=#006EAF;container=0;" parent="0uun9HxLS7iqF53nhESP-27" vertex="1">
          <mxGeometry x="3.6734693877550626" width="69.79591836734694" height="20" as="geometry" />
        </mxCell>
        <mxCell id="03iiNGIinE4u4F2NldvT-1" value="" style="group" parent="1" vertex="1" connectable="0">
          <mxGeometry x="250" y="260" width="525" height="620" as="geometry" />
        </mxCell>
        <mxCell id="6_dM-zjxGHW6j9c7KO60-33" value="" style="rounded=0;whiteSpace=wrap;html=1;fillColor=#fff2cc;strokeColor=#d6b656;" parent="03iiNGIinE4u4F2NldvT-1" vertex="1">
          <mxGeometry x="15" y="15" width="510" height="580" as="geometry" />
        </mxCell>
        <mxCell id="6_dM-zjxGHW6j9c7KO60-18" value="" style="rounded=0;whiteSpace=wrap;html=1;fillColor=#fff2cc;strokeColor=#d6b656;" parent="03iiNGIinE4u4F2NldvT-1" vertex="1">
          <mxGeometry x="10" y="10" width="510" height="580" as="geometry" />
        </mxCell>
        <mxCell id="6_dM-zjxGHW6j9c7KO60-19" value="" style="rounded=0;whiteSpace=wrap;html=1;fillColor=#fff2cc;strokeColor=#d6b656;" parent="03iiNGIinE4u4F2NldvT-1" vertex="1">
          <mxGeometry x="5" y="5" width="510" height="580" as="geometry" />
        </mxCell>
        <mxCell id="6_dM-zjxGHW6j9c7KO60-10" value="" style="rounded=0;whiteSpace=wrap;html=1;fillColor=#fff2cc;strokeColor=#d6b656;" parent="03iiNGIinE4u4F2NldvT-1" vertex="1">
          <mxGeometry width="510" height="580" as="geometry" />
        </mxCell>
        <mxCell id="6_dM-zjxGHW6j9c7KO60-12" value="&lt;font style=&quot;font-size: 18px;&quot;&gt;&lt;span style=&quot;font-size: 18px;&quot;&gt;&lt;b style=&quot;font-size: 18px;&quot;&gt;&lt;font face=&quot;宋体&quot;&gt;解码器层(&lt;/font&gt;&lt;font face=&quot;Times New Roman&quot;&gt;FalconDecoderLayer)&lt;/font&gt;&lt;/b&gt;&lt;/span&gt;&lt;/font&gt;&lt;div&gt;&lt;font style=&quot;font-size: 18px;&quot;&gt;&lt;span style=&quot;font-size: 18px;&quot;&gt;&lt;b style=&quot;font-size: 18px;&quot;&gt;&lt;font face=&quot;Times New Roman&quot;&gt;× N&lt;/font&gt;&lt;/b&gt;&lt;/span&gt;&lt;/font&gt;&lt;/div&gt;" style="text;html=1;align=center;verticalAlign=middle;whiteSpace=wrap;rounded=0;fontSize=18;" parent="03iiNGIinE4u4F2NldvT-1" vertex="1">
          <mxGeometry width="178" height="70" as="geometry" />
        </mxCell>
        <mxCell id="6_dM-zjxGHW6j9c7KO60-14" value="" style="rounded=0;whiteSpace=wrap;html=1;fillColor=#e1d5e7;strokeColor=#9673a6;" parent="03iiNGIinE4u4F2NldvT-1" vertex="1">
          <mxGeometry x="20" y="67" width="470" height="210" as="geometry" />
        </mxCell>
        <mxCell id="6_dM-zjxGHW6j9c7KO60-13" value="&lt;div style=&quot;font-size: 18px;&quot;&gt;&lt;font style=&quot;font-size: 18px;&quot;&gt;&lt;span style=&quot;font-size: 18px;&quot;&gt;&lt;b style=&quot;font-size: 18px;&quot;&gt;&lt;font face=&quot;宋体&quot;&gt;自注意力层&lt;/font&gt;&lt;/b&gt;&lt;/span&gt;&lt;/font&gt;&lt;/div&gt;&lt;font style=&quot;font-size: 18px;&quot; face=&quot;Times New Roman&quot;&gt;&lt;span style=&quot;font-size: 18px;&quot;&gt;&lt;b style=&quot;font-size: 18px;&quot;&gt;(FalconAttention)&lt;/b&gt;&lt;/span&gt;&lt;/font&gt;" style="text;html=1;align=center;verticalAlign=middle;whiteSpace=wrap;rounded=0;fontSize=18;" parent="03iiNGIinE4u4F2NldvT-1" vertex="1">
          <mxGeometry x="20" y="143.5" width="140" height="57" as="geometry" />
        </mxCell>
        <mxCell id="6_dM-zjxGHW6j9c7KO60-43" style="edgeStyle=orthogonalEdgeStyle;rounded=0;orthogonalLoop=1;jettySize=auto;html=1;exitX=0.5;exitY=1;exitDx=0;exitDy=0;entryX=0.5;entryY=0;entryDx=0;entryDy=0;fontFamily=Helvetica;fontSize=12;fontColor=default;endArrow=classicThin;endFill=1;" parent="03iiNGIinE4u4F2NldvT-1" source="6_dM-zjxGHW6j9c7KO60-15" target="6_dM-zjxGHW6j9c7KO60-16" edge="1">
          <mxGeometry relative="1" as="geometry" />
        </mxCell>
        <mxCell id="6_dM-zjxGHW6j9c7KO60-15" value="&lt;font face=&quot;宋体&quot;&gt;查询键值层&lt;/font&gt;&lt;br&gt;&lt;div style=&quot;font-size: 16px;&quot;&gt;&lt;font style=&quot;font-size: 16px;&quot; face=&quot;Times New Roman&quot;&gt;(FalconLinear)&lt;/font&gt;&lt;/div&gt;" style="rounded=0;whiteSpace=wrap;html=1;align=center;verticalAlign=middle;fontFamily=Helvetica;fontSize=16;fillColor=#b1ddf0;strokeColor=#10739e;" parent="03iiNGIinE4u4F2NldvT-1" vertex="1">
          <mxGeometry x="210" y="77" width="180" height="50" as="geometry" />
        </mxCell>
        <mxCell id="6_dM-zjxGHW6j9c7KO60-36" style="edgeStyle=orthogonalEdgeStyle;rounded=0;orthogonalLoop=1;jettySize=auto;html=1;exitX=0.5;exitY=1;exitDx=0;exitDy=0;entryX=0.5;entryY=0;entryDx=0;entryDy=0;fontFamily=Helvetica;fontSize=12;fontColor=default;endArrow=classicThin;endFill=1;" parent="03iiNGIinE4u4F2NldvT-1" source="6_dM-zjxGHW6j9c7KO60-16" target="6_dM-zjxGHW6j9c7KO60-17" edge="1">
          <mxGeometry relative="1" as="geometry" />
        </mxCell>
        <mxCell id="6_dM-zjxGHW6j9c7KO60-16" value="&lt;font face=&quot;宋体&quot; style=&quot;font-size: 16px;&quot;&gt;全连接层&lt;/font&gt;&lt;div style=&quot;font-size: 16px;&quot;&gt;&lt;font style=&quot;font-size: 16px;&quot; face=&quot;Times New Roman&quot;&gt;(FalconLinear)&lt;/font&gt;&lt;/div&gt;" style="rounded=0;whiteSpace=wrap;html=1;align=center;verticalAlign=middle;fontFamily=Helvetica;fontSize=16;fillColor=#b1ddf0;strokeColor=#10739e;" parent="03iiNGIinE4u4F2NldvT-1" vertex="1">
          <mxGeometry x="210" y="147" width="180" height="50" as="geometry" />
        </mxCell>
        <mxCell id="6_dM-zjxGHW6j9c7KO60-17" value="&lt;font face=&quot;宋体&quot; style=&quot;font-size: 16px;&quot;&gt;注意力随机失活&lt;/font&gt;&lt;div style=&quot;font-size: 16px;&quot;&gt;&lt;font style=&quot;font-size: 16px;&quot; face=&quot;Times New Roman&quot;&gt;&lt;span style=&quot;font-size: 16px;&quot;&gt;(Dropout)&lt;/span&gt;&lt;/font&gt;&lt;/div&gt;" style="rounded=0;whiteSpace=wrap;html=1;align=center;verticalAlign=middle;fontFamily=Helvetica;fontSize=16;fillColor=#bac8d3;strokeColor=#23445d;" parent="03iiNGIinE4u4F2NldvT-1" vertex="1">
          <mxGeometry x="210" y="217" width="180" height="50" as="geometry" />
        </mxCell>
        <mxCell id="6_dM-zjxGHW6j9c7KO60-20" value="" style="rounded=0;whiteSpace=wrap;html=1;fillColor=#e1d5e7;strokeColor=#9673a6;" parent="03iiNGIinE4u4F2NldvT-1" vertex="1">
          <mxGeometry x="20" y="287" width="470" height="210" as="geometry" />
        </mxCell>
        <mxCell id="6_dM-zjxGHW6j9c7KO60-21" value="&lt;div style=&quot;font-size: 18px;&quot;&gt;&lt;font face=&quot;宋体&quot; style=&quot;font-size: 18px;&quot;&gt;&lt;span style=&quot;font-size: 18px;&quot;&gt;&lt;b style=&quot;font-size: 18px;&quot;&gt;多层感知器层&lt;/b&gt;&lt;/span&gt;&lt;/font&gt;&lt;/div&gt;&lt;font style=&quot;font-size: 18px;&quot; face=&quot;Times New Roman&quot;&gt;&lt;span style=&quot;font-size: 18px;&quot;&gt;&lt;b style=&quot;font-size: 18px;&quot;&gt;(Falconmlp)&lt;/b&gt;&lt;/span&gt;&lt;/font&gt;" style="text;html=1;align=center;verticalAlign=middle;whiteSpace=wrap;rounded=0;fontSize=18;" parent="03iiNGIinE4u4F2NldvT-1" vertex="1">
          <mxGeometry x="20" y="367" width="120" height="50" as="geometry" />
        </mxCell>
        <mxCell id="6_dM-zjxGHW6j9c7KO60-47" style="edgeStyle=orthogonalEdgeStyle;rounded=0;orthogonalLoop=1;jettySize=auto;html=1;exitX=0.5;exitY=1;exitDx=0;exitDy=0;fontFamily=Helvetica;fontSize=12;fontColor=default;endArrow=classicThin;endFill=1;" parent="03iiNGIinE4u4F2NldvT-1" source="6_dM-zjxGHW6j9c7KO60-22" target="6_dM-zjxGHW6j9c7KO60-23" edge="1">
          <mxGeometry relative="1" as="geometry" />
        </mxCell>
        <mxCell id="6_dM-zjxGHW6j9c7KO60-22" value="&lt;font face=&quot;宋体&quot;&gt;升维全连接层&lt;/font&gt;&lt;br&gt;&lt;div style=&quot;font-size: 16px;&quot;&gt;&lt;font style=&quot;font-size: 16px;&quot; face=&quot;Times New Roman&quot;&gt;(FalconLinear)&lt;/font&gt;&lt;/div&gt;" style="rounded=0;whiteSpace=wrap;html=1;align=center;verticalAlign=middle;fontFamily=Helvetica;fontSize=16;fillColor=#b1ddf0;strokeColor=#10739e;" parent="03iiNGIinE4u4F2NldvT-1" vertex="1">
          <mxGeometry x="210" y="297" width="180" height="50" as="geometry" />
        </mxCell>
        <mxCell id="6_dM-zjxGHW6j9c7KO60-48" style="edgeStyle=orthogonalEdgeStyle;rounded=0;orthogonalLoop=1;jettySize=auto;html=1;exitX=0.5;exitY=1;exitDx=0;exitDy=0;entryX=0.5;entryY=0;entryDx=0;entryDy=0;fontFamily=Helvetica;fontSize=12;fontColor=default;endArrow=classicThin;endFill=1;" parent="03iiNGIinE4u4F2NldvT-1" source="6_dM-zjxGHW6j9c7KO60-23" target="6_dM-zjxGHW6j9c7KO60-24" edge="1">
          <mxGeometry relative="1" as="geometry" />
        </mxCell>
        <mxCell id="6_dM-zjxGHW6j9c7KO60-23" value="&lt;font face=&quot;宋体&quot; style=&quot;font-size: 16px;&quot;&gt;激活层&lt;/font&gt;&lt;div style=&quot;font-size: 16px;&quot;&gt;&lt;font style=&quot;font-size: 16px;&quot; face=&quot;Times New Roman&quot;&gt;&lt;span style=&quot;font-size: 16px;&quot;&gt;GELUActivation&lt;/span&gt;&lt;/font&gt;&lt;/div&gt;" style="rounded=0;whiteSpace=wrap;html=1;align=center;verticalAlign=middle;fontFamily=Helvetica;fontSize=16;fillColor=#ffcccc;strokeColor=#36393d;" parent="03iiNGIinE4u4F2NldvT-1" vertex="1">
          <mxGeometry x="210" y="367" width="180" height="50" as="geometry" />
        </mxCell>
        <mxCell id="EwGdMeEbpD3Nh6OR7GkJ-18" style="edgeStyle=orthogonalEdgeStyle;rounded=0;orthogonalLoop=1;jettySize=auto;html=1;exitX=0.5;exitY=1;exitDx=0;exitDy=0;entryX=0.5;entryY=0;entryDx=0;entryDy=0;strokeColor=default;align=center;verticalAlign=middle;fontFamily=Helvetica;fontSize=12;fontColor=default;labelBackgroundColor=default;endArrow=classicThin;endFill=1;" parent="03iiNGIinE4u4F2NldvT-1" source="6_dM-zjxGHW6j9c7KO60-24" target="6_dM-zjxGHW6j9c7KO60-27" edge="1">
          <mxGeometry relative="1" as="geometry">
            <Array as="points">
              <mxPoint x="300" y="507" />
              <mxPoint x="130" y="507" />
            </Array>
          </mxGeometry>
        </mxCell>
        <mxCell id="6_dM-zjxGHW6j9c7KO60-24" value="&lt;font face=&quot;宋体&quot;&gt;降维全联接层&lt;/font&gt;&lt;br&gt;&lt;div style=&quot;font-size: 16px;&quot;&gt;&lt;font style=&quot;font-size: 16px;&quot; face=&quot;Times New Roman&quot;&gt;(FalconLinear)&lt;/font&gt;&lt;/div&gt;" style="rounded=0;whiteSpace=wrap;html=1;align=center;verticalAlign=middle;fontFamily=Helvetica;fontSize=16;fillColor=#b1ddf0;strokeColor=#10739e;" parent="03iiNGIinE4u4F2NldvT-1" vertex="1">
          <mxGeometry x="210" y="437" width="180" height="50" as="geometry" />
        </mxCell>
        <mxCell id="EwGdMeEbpD3Nh6OR7GkJ-8" style="edgeStyle=orthogonalEdgeStyle;rounded=0;orthogonalLoop=1;jettySize=auto;html=1;exitX=1;exitY=0.5;exitDx=0;exitDy=0;entryX=0;entryY=0.5;entryDx=0;entryDy=0;strokeColor=default;align=center;verticalAlign=middle;fontFamily=Helvetica;fontSize=12;fontColor=default;labelBackgroundColor=default;endArrow=classicThin;endFill=1;" parent="03iiNGIinE4u4F2NldvT-1" source="6_dM-zjxGHW6j9c7KO60-27" target="6_dM-zjxGHW6j9c7KO60-30" edge="1">
          <mxGeometry relative="1" as="geometry" />
        </mxCell>
        <mxCell id="6_dM-zjxGHW6j9c7KO60-27" value="&lt;font face=&quot;宋体&quot;&gt;输入层归一化&lt;/font&gt;&lt;br&gt;&lt;div style=&quot;font-size: 16px;&quot;&gt;&lt;font style=&quot;font-size: 16px;&quot; face=&quot;Times New Roman&quot;&gt;&lt;span style=&quot;font-size: 16px;&quot;&gt;(LayerNorm)&lt;/span&gt;&lt;/font&gt;&lt;/div&gt;" style="rounded=0;whiteSpace=wrap;html=1;align=center;verticalAlign=middle;fontFamily=Helvetica;fontSize=16;fillColor=#f5f5f5;strokeColor=#666666;fontColor=#333333;" parent="03iiNGIinE4u4F2NldvT-1" vertex="1">
          <mxGeometry x="40" y="517" width="180" height="50" as="geometry" />
        </mxCell>
        <mxCell id="6_dM-zjxGHW6j9c7KO60-30" value="&lt;font face=&quot;宋体&quot; style=&quot;font-size: 16px;&quot;&gt;注意力后层归一化&lt;/font&gt;&lt;div style=&quot;font-size: 16px;&quot;&gt;&lt;font style=&quot;font-size: 16px;&quot; face=&quot;Times New Roman&quot;&gt;&lt;span style=&quot;font-size: 16px;&quot;&gt;(LayerNorm)&lt;/span&gt;&lt;/font&gt;&lt;/div&gt;" style="rounded=0;whiteSpace=wrap;html=1;align=center;verticalAlign=middle;fontFamily=Helvetica;fontSize=16;fillColor=#f5f5f5;strokeColor=#666666;fontColor=#333333;" parent="03iiNGIinE4u4F2NldvT-1" vertex="1">
          <mxGeometry x="290" y="517" width="180" height="50" as="geometry" />
        </mxCell>
        <mxCell id="EwGdMeEbpD3Nh6OR7GkJ-17" style="edgeStyle=orthogonalEdgeStyle;rounded=0;orthogonalLoop=1;jettySize=auto;html=1;exitX=0.5;exitY=1;exitDx=0;exitDy=0;entryX=0.5;entryY=0;entryDx=0;entryDy=0;strokeColor=default;align=center;verticalAlign=middle;fontFamily=Helvetica;fontSize=12;fontColor=default;labelBackgroundColor=default;endArrow=classicThin;endFill=1;" parent="03iiNGIinE4u4F2NldvT-1" source="6_dM-zjxGHW6j9c7KO60-17" target="6_dM-zjxGHW6j9c7KO60-22" edge="1">
          <mxGeometry relative="1" as="geometry" />
        </mxCell>
        <mxCell id="EwGdMeEbpD3Nh6OR7GkJ-20" style="edgeStyle=orthogonalEdgeStyle;rounded=0;orthogonalLoop=1;jettySize=auto;html=1;exitX=0.5;exitY=1;exitDx=0;exitDy=0;entryX=0.5;entryY=0;entryDx=0;entryDy=0;strokeColor=default;align=center;verticalAlign=middle;fontFamily=Helvetica;fontSize=12;fontColor=default;labelBackgroundColor=default;endArrow=classicThin;endFill=1;" parent="1" source="6_dM-zjxGHW6j9c7KO60-30" target="6_dM-zjxGHW6j9c7KO60-31" edge="1">
          <mxGeometry relative="1" as="geometry" />
        </mxCell>
        <mxCell id="EwGdMeEbpD3Nh6OR7GkJ-21" style="edgeStyle=orthogonalEdgeStyle;rounded=0;orthogonalLoop=1;jettySize=auto;html=1;exitX=0.5;exitY=1;exitDx=0;exitDy=0;entryX=0.5;entryY=0;entryDx=0;entryDy=0;strokeColor=default;align=center;verticalAlign=middle;fontFamily=Helvetica;fontSize=12;fontColor=default;labelBackgroundColor=default;endArrow=classicThin;endFill=1;" parent="1" source="6_dM-zjxGHW6j9c7KO60-6" target="6_dM-zjxGHW6j9c7KO60-15" edge="1">
          <mxGeometry relative="1" as="geometry" />
        </mxCell>
      </root>
    </mxGraphModel>
  </diagram>
</mxfile>
